# xmcd
#
# Track frame offsets: 
#        150
#        10630
#        21820
#        33714
#        45417
#        58704
#        71905
#        83544
#        94784
#        105905
#        116519
#        129713
#        142497
#        152860
#        163216
#        176583
#        187848
#        197560
#        207061
#        219472
#        230913
#        243055
#
# Disc length: 3372 seconds
#
# Revision: 1
# Processed by: cddbd v1.5.2PL0 Copyright (c) Steve Scherf et al.
# Submitted via: ExactAudioCopyFreeDBPlugin 1.0
#
DISCID=2f0d2a16
DTITLE=The Bailes Brothers - Standing Somewhere In The Shadows: The Le
DTITLE=gendary King Sessions 1953, Plus
DYEAR=2012
DGENRE=Country
TTITLE0=That's What We Need
TTITLE1=Jesus' Blood
TTITLE2=I Can't Help What Others Do
TTITLE3=There's A Difference Between Religion And Salvation
TTITLE4=Avenue Of Prayer
TTITLE5=There's A Handwriting On The Wall
TTITLE6=Muddy Sea Of Sin
TTITLE7=Goodbye Hallelujah I'm Gone
TTITLE8=God's Hand Rules The World
TTITLE9=I'll Run All The Way
TTITLE10=Watch And Pray
TTITLE11=Standing Somewhere In The Shadows
TTITLE12='Cause He Loved Me First (Walter Bailes)
TTITLE13=Saved (Walter Bailes)
TTITLE14=I Owe It All To My Heart (Johnnie Bailes)
TTITLE15=You Make Me Live Again (Johnnie Bailes)
TTITLE16=It's Bound To Happen (Johnnie Bailes)
TTITLE17=So Much (Johnnie Bailes)
TTITLE18=Ballad Of Honest Abe (Johnnie Bailes)
TTITLE19=Hula Star (Johnnie Bailes)
TTITLE20=(If I Were) Alone With God (Johnnie Bailes)
TTITLE21=He Will (Johnnie Bailes)
EXTD=
EXTT0=
EXTT1=
EXTT2=
EXTT3=
EXTT4=
EXTT5=
EXTT6=
EXTT7=
EXTT8=
EXTT9=
EXTT10=
EXTT11=
EXTT12=
EXTT13=
EXTT14=
EXTT15=
EXTT16=
EXTT17=
EXTT18=
EXTT19=
EXTT20=
EXTT21=
PLAYORDER=
